# xmcd
#
# Track frame offsets: 
#        150
#        18730
#        40590
#        57896
#        77082
#        87958
#        100830
#        120717
#        138271
#        152190
#        171363
#        186665
#        198996
#        215281
#        227298
#        240235
#        257467
#        274480
#        283648
#        297769
#        313333
#
# Disc length: 4371 seconds
#
# Revision: 0
# Processed by: cddbd v1.5.2PL0 Copyright (c) Steve Scherf et al.
# Submitted via: ExactAudioCopy v0.99pb3
#
DISCID=2a111115
DTITLE=Alfie Smith - Brass and Steel
DYEAR=2008
DGENRE=Blues
TTITLE0=Silver Spoon
TTITLE1=Brass and Steel
TTITLE2=Broken Bones
TTITLE3=Never Mind
TTITLE4=Boat Of Sin
TTITLE5=In My Time Of Dying
TTITLE6=Man Makes The World Hard
TTITLE7=I Got The Blues
TTITLE8=Crash Upon Your Shore
TTITLE9=Alone In Time
TTITLE10=Trojan Horse
TTITLE11=Kindhearted Woamn Blues
TTITLE12=The Wind Cries Mary
TTITLE13=Second Skin
TTITLE14=Same Old Lonely Song
TTITLE15=Silver Spoon (acoustic)
TTITLE16=Broken Bones (acoustic)
TTITLE17=Boat Of Sin (acoustic)
TTITLE18=Man Makes The World Hard (acoustic)
TTITLE19=Crash Upon Your Shore (acoustic)
TTITLE20=Trojan Horse (acoustic)
EXTD=
EXTT0=
EXTT1=
EXTT2=
EXTT3=
EXTT4=
EXTT5=
EXTT6=
EXTT7=
EXTT8=
EXTT9=
EXTT10=
EXTT11=
EXTT12=
EXTT13=
EXTT14=
EXTT15=
EXTT16=
EXTT17=
EXTT18=
EXTT19=
EXTT20=
PLAYORDER=
